<svg width="24" height="24" viewBox="0 0 24 24" fill="none" xmlns="http://www.w3.org/2000/svg">
<path d="M12 6.75043C10.8954 6.75043 10 5.855 10 4.75043C10 3.64586 10.8954 2.75043 12 2.75043C13.1046 2.75043 14 3.64586 14 4.75043C14 5.855 13.1046 6.75043 12 6.75043Z" stroke="black" stroke-width="1.5"/>
<path d="M12 14.0004C10.8954 14.0004 10 13.105 10 12.0004C10 10.8959 10.8954 10.0004 12 10.0004C13.1046 10.0004 14 10.8959 14 12.0004C14 13.105 13.1046 14.0004 12 14.0004Z" stroke="black" stroke-width="1.5"/>
<path d="M12 21.2504C10.8954 21.2504 10 20.355 10 19.2504C10 18.1459 10.8954 17.2504 12 17.2504C13.1046 17.2504 14 18.1459 14 19.2504C14 20.355 13.1046 21.2504 12 21.2504Z" stroke="black" stroke-width="1.5"/>
</svg>
