<svg width="24" height="24" viewBox="0 0 24 24" fill="none" xmlns="http://www.w3.org/2000/svg">
<path d="M15.3433 20.6273C14.3064 21.0294 13.179 21.25 12 21.25C6.89137 21.25 2.75 17.1086 2.75 12C2.75 6.89137 6.89137 2.75 12 2.75C17.1086 2.75 21.25 6.89137 21.25 12C21.25 13.7469 20.7658 15.3807 19.9242 16.7744C19.8328 16.9257 19.7205 17.063 19.5955 17.1879C17.8552 18.9265 14.9191 17.3385 15.4216 14.9304L16.9938 7.39598" stroke="black" stroke-width="1.5" stroke-linecap="round"/>
<path d="M6.9997 12.0016L7.3155 10.344C7.71267 8.25919 9.53541 6.75092 11.6577 6.75092C14.4306 6.75092 16.5188 9.27447 15.9998 11.9984L15.684 13.656C15.2869 15.7408 13.4641 17.2491 11.3419 17.2491C8.56895 17.2491 6.48077 14.7255 6.9997 12.0016Z" stroke="black" stroke-width="1.5" stroke-linecap="round" stroke-linejoin="round"/>
</svg>
