<svg width="24" height="24" viewBox="0 0 24 24" fill="none" xmlns="http://www.w3.org/2000/svg">
<g clip-path="url(#clip0_201_68878)">
<path d="M9.29 21C8.46382 20.996 7.64668 20.8277 6.88614 20.505C6.1256 20.1822 5.43686 19.7114 4.86 19.12C4.28746 18.5773 3.82755 17.9271 3.50658 17.2065C3.18561 16.486 3.00987 15.7092 2.98944 14.9206C2.96901 14.132 3.10427 13.3472 3.38749 12.6109C3.67071 11.8747 4.09633 11.2015 4.64 10.63L12 3.19997C12.393 2.80765 12.8615 2.49905 13.3771 2.2928C13.8927 2.08655 14.4448 1.98694 15 1.99997C15.5947 2.002 16.1831 2.12241 16.7307 2.35419C17.2784 2.58597 17.7745 2.92448 18.19 3.34997C19.017 4.14621 19.4966 5.23649 19.5247 6.38415C19.5527 7.53181 19.1271 8.64424 18.34 9.47997L10.94 16.91C10.703 17.1486 10.4209 17.3378 10.1102 17.4665C9.79951 17.5953 9.46632 17.661 9.13 17.66C8.76667 17.6605 8.40693 17.5881 8.07201 17.4473C7.7371 17.3065 7.43379 17.1 7.18 16.84C6.67272 16.3488 6.37977 15.6773 6.36479 14.9714C6.34981 14.2655 6.61402 13.5822 7.1 13.07L13.93 6.20997C14.1244 6.08088 14.3578 6.02382 14.5898 6.04869C14.8218 6.07355 15.0378 6.17878 15.2004 6.34613C15.3631 6.51349 15.462 6.73244 15.4802 6.96508C15.4984 7.19772 15.4346 7.42939 15.3 7.61997L8.47 14.48C8.3561 14.6172 8.30067 14.7936 8.31563 14.9713C8.3306 15.149 8.41476 15.3137 8.55 15.43C8.69071 15.5717 8.8804 15.654 9.08 15.66C9.15393 15.661 9.22734 15.6474 9.296 15.62C9.36465 15.5925 9.42719 15.5517 9.48 15.5L16.87 8.06997C17.2848 7.60915 17.5016 7.0036 17.4735 6.38422C17.4455 5.76484 17.1748 5.18138 16.72 4.75997C16.2976 4.32141 15.7231 4.06143 15.1149 4.03353C14.5066 4.00563 13.9108 4.21193 13.45 4.60997L6.06 12C5.70064 12.3859 5.42116 12.8392 5.23762 13.3336C5.05409 13.828 4.97013 14.3538 4.99058 14.8807C5.01102 15.4077 5.13547 15.9254 5.35676 16.4041C5.57805 16.8828 5.89181 17.313 6.28 17.67C6.66927 18.0735 7.13506 18.3954 7.65016 18.6169C8.16525 18.8384 8.71932 18.955 9.28 18.96C9.76341 18.9639 10.2428 18.8723 10.6908 18.6904C11.1387 18.5085 11.5462 18.2399 11.89 17.9L19.28 10.47C19.3726 10.3767 19.4826 10.3026 19.6038 10.2519C19.725 10.2012 19.8551 10.1749 19.9865 10.1744C20.1179 10.174 20.2481 10.1994 20.3696 10.2492C20.4912 10.2991 20.6018 10.3724 20.695 10.465C20.7882 10.5576 20.8623 10.6676 20.913 10.7888C20.9637 10.91 20.9901 11.04 20.9906 11.1714C20.991 11.3028 20.9656 11.433 20.9157 11.5546C20.8659 11.6762 20.7926 11.7867 20.7 11.88L13.31 19.31C12.7853 19.8439 12.1597 20.2683 11.4696 20.5584C10.7795 20.8486 10.0386 20.9986 9.29 21Z" fill="black"/>
</g>
<defs>
<clipPath id="clip0_201_68878">
<rect width="24" height="24" fill="white"/>
</clipPath>
</defs>
</svg>
