<svg width="24" height="24" viewBox="0 0 24 24" fill="none" xmlns="http://www.w3.org/2000/svg">
<path d="M18.6751 18.5C19.4476 18.2231 20.0002 17.4845 20.0002 16.6167V16.0664C20.0002 14.9618 19.1047 14.0664 18.0002 14.0664H17.8227V10.5726C17.8227 7.35687 15.2158 4.75 12.0001 4.75C10.1649 4.75 8.528 5.59902 7.46078 6.9257M8.73782 19.0704C8.91524 19.4987 9.17527 19.8879 9.50308 20.2157C9.83089 20.5435 10.2201 20.8036 10.6484 20.981C11.0767 21.1584 11.5357 21.2497 11.9993 21.2497C12.4629 21.2497 12.922 21.1584 13.3503 20.981C13.7786 20.8036 14.1678 20.5435 14.4956 20.2157C14.8234 19.8879 15.0431 19.5623 15.2608 19.0704C15.3373 18.8975 15.4297 18.6167 15.4297 18.6167H6C4.89544 18.6167 4.00001 17.7213 4 16.6168L4 16.0664C3.99999 14.9618 4.89543 14.0664 6 14.0664H6.17746V10.5726C6.17746 10.4919 6.17911 10.4115 6.18236 10.3315" stroke="black" stroke-width="1.5" stroke-linecap="round" stroke-linejoin="round"/>
<path d="M10.4727 4.58214L10.4727 4.28C10.4727 3.43647 11.1565 2.75266 12 2.75266C12.8435 2.75265 13.5273 3.43647 13.5273 4.28V4.49998" stroke="black" stroke-width="1.5" stroke-linecap="round" stroke-linejoin="round"/>
<path d="M4 4L20.5 20.5" stroke="black" stroke-width="1.5" stroke-linecap="round" stroke-linejoin="round"/>
</svg>
