<svg width="24" height="24" viewBox="0 0 24 24" fill="none" xmlns="http://www.w3.org/2000/svg">
<path d="M3.23926 5.71753C3.23926 4.8891 3.91083 4.21753 4.73926 4.21753H19.2606C20.089 4.21753 20.7606 4.8891 20.7606 5.71753V19.75C20.7606 20.5784 20.089 21.25 19.2606 21.25H4.73926C3.91083 21.25 3.23926 20.5784 3.23926 19.75V5.71753Z" stroke="black" stroke-width="1.5" stroke-linejoin="round"/>
<path d="M6.99805 5.20293V2.75" stroke="black" stroke-width="1.5" stroke-linecap="round" stroke-linejoin="round"/>
<path d="M17.002 5.20293V2.75" stroke="black" stroke-width="1.5" stroke-linecap="round" stroke-linejoin="round"/>
<path d="M20.7609 7.75476H3.26758" stroke="black" stroke-width="1.5"/>
<path d="M6.74707 11.0009H8.24707M11.249 11.0009H12.749M15.751 11.0009H17.251M11.249 14.5024H12.749M6.74707 14.5024H8.24707M15.751 14.5024H17.251M11.249 18.0039H12.749M6.74707 18.0039H8.24707M15.751 18.0039H17.251" stroke="black" stroke-width="1.5" stroke-linecap="round" stroke-linejoin="round"/>
</svg>
