<svg width="24" height="24" viewBox="0 0 24 24" fill="none" xmlns="http://www.w3.org/2000/svg">
<path d="M3.03296 3.25L4.50852 4.00109C4.8131 4.15613 5.01741 4.45598 5.05026 4.79617L5.99752 14.6071M5.99752 14.6071H16.6988M5.99752 14.6071V14.6071C4.99431 15.1446 4.78297 16.4921 5.5735 17.3108L5.72094 17.4635C5.89769 17.6466 6.14125 17.75 6.39572 17.75H19.9975" stroke="black" stroke-width="1.5" stroke-linecap="round"/>
<circle cx="17.4976" cy="19.25" r="1.5" stroke="black" stroke-width="1.5"/>
<circle cx="8.49756" cy="19.25" r="1.5" stroke="black" stroke-width="1.5"/>
<path d="M6.00247 14.6078L5.31408 6.61529L20.1744 7.52642C20.839 7.56717 21.2789 8.23385 21.055 8.86089L19.4765 13.2805C19.1922 14.0765 18.4383 14.6078 17.593 14.6078H6.00247Z" stroke="black" stroke-width="1.5" stroke-linecap="round"/>
</svg>
