<svg width="24" height="24" viewBox="0 0 24 24" fill="none" xmlns="http://www.w3.org/2000/svg">
<path d="M19.4706 7.94297L20.947 6.46653C21.3375 6.07601 21.3375 5.44284 20.947 5.05232L18.9747 3.08C18.5842 2.68948 17.951 2.68948 17.5605 3.08L16.0841 4.55644M19.4706 7.94297L11.5636 15.85C11.4846 15.929 11.3815 15.9792 11.2706 15.9927L8.21906 16.3648C7.89664 16.4041 7.6229 16.1304 7.66222 15.808L8.03431 12.7565C8.04783 12.6456 8.09809 12.5424 8.17708 12.4634L16.0841 4.55644M19.4706 7.94297L16.0841 4.55644" stroke="black" stroke-width="1.5" stroke-linejoin="round"/>
<path d="M21.25 12V19.75C21.25 20.5784 20.5784 21.25 19.75 21.25H4.25C3.42157 21.25 2.75 20.5784 2.75 19.75V4.25C2.75 3.42157 3.42157 2.75 4.25 2.75H12" stroke="black" stroke-width="1.5" stroke-linecap="round" stroke-linejoin="round"/>
</svg>
