<svg width="24" height="24" viewBox="0 0 24 24" fill="none" xmlns="http://www.w3.org/2000/svg">
<path d="M14.991 12.2386C14.8756 13.7045 13.7065 14.8742 12.2408 14.9904M9.58313 13.7771C9.21682 13.2796 9.00037 12.6651 9.00037 11.9999C9.00037 10.3431 10.3435 8.99994 12.0004 8.99994C12.648 8.99994 13.2477 9.20515 13.738 9.5541" stroke="black" stroke-width="1.5" stroke-linecap="round"/>
<path d="M18.7318 8.49128C19.8107 9.74492 20.5066 11 20.8155 11.6133C20.9397 11.8599 20.9397 12.14 20.8155 12.3866C20.0761 13.8546 17.1191 19.0003 12.0002 19.0003C10.8621 19.0003 9.83086 18.746 8.90711 18.3342M6.28527 16.5663C4.61822 15.0233 3.58187 13.1748 3.18484 12.3866C3.06062 12.14 3.06062 11.8599 3.18484 11.6133C3.92427 10.1453 6.88127 4.99957 12.0002 4.99957C13.6857 4.99957 15.1368 5.55747 16.3515 6.35827" stroke="black" stroke-width="1.5" stroke-linecap="round"/>
<path d="M18.8417 4.50043L3.84167 19.5004" stroke="black" stroke-width="1.5" stroke-linecap="round"/>
</svg>
