<svg width="24" height="24" viewBox="0 0 24 24" fill="none" xmlns="http://www.w3.org/2000/svg">
<path d="M15.0004 11.9999C15.0004 13.6568 13.6572 14.9999 12.0004 14.9999C10.3435 14.9999 9.00037 13.6568 9.00037 11.9999C9.00037 10.3431 10.3435 8.99994 12.0004 8.99994C13.6572 8.99994 15.0004 10.3431 15.0004 11.9999Z" stroke="black" stroke-width="1.5" stroke-linecap="round"/>
<path d="M20.8155 11.6133C20.9397 11.8599 20.9397 12.14 20.8155 12.3866C20.0761 13.8546 17.1191 19.0003 12.0002 19.0003C6.88127 19.0003 3.92427 13.8546 3.18484 12.3866C3.06062 12.14 3.06062 11.8599 3.18484 11.6133C3.92427 10.1453 6.88127 4.99957 12.0002 4.99957C17.1191 4.99957 20.0761 10.1453 20.8155 11.6133Z" stroke="black" stroke-width="1.5" stroke-linecap="round"/>
</svg>
