<svg width="24" height="24" viewBox="0 0 24 24" fill="none" xmlns="http://www.w3.org/2000/svg">
<path d="M3 6H14M18 6H21" stroke="black" stroke-width="1.5" stroke-linecap="round"/>
<path d="M9 12H21M3 12H5" stroke="black" stroke-width="1.5" stroke-linecap="round"/>
<path d="M3 18H11M15 18H21" stroke="black" stroke-width="1.5" stroke-linecap="round"/>
<path d="M18 6C18 7.10457 17.1046 8 16 8C14.8954 8 14 7.10457 14 6C14 4.89543 14.8954 4 16 4C17.1046 4 18 4.89543 18 6Z" stroke="black" stroke-width="1.5" stroke-linecap="round"/>
<path d="M9 12C9 13.1046 8.10457 14 7 14C5.89543 14 5 13.1046 5 12C5 10.8954 5.89543 10 7 10C8.10457 10 9 10.8954 9 12Z" stroke="black" stroke-width="1.5" stroke-linecap="round"/>
<path d="M15 18C15 19.1046 14.1046 20 13 20C11.8954 20 11 19.1046 11 18C11 16.8954 11.8954 16 13 16C14.1046 16 15 16.8954 15 18Z" stroke="black" stroke-width="1.5" stroke-linecap="round"/>
</svg>
