<svg width="24" height="24" viewBox="0 0 24 24" fill="none" xmlns="http://www.w3.org/2000/svg">
<path d="M5 20C3.89543 20 3 19.1046 3 18L3 6C3 4.89543 3.89543 4 5 4L19 4C20.1046 4 21 4.89543 21 6V18C21 19.1046 20.1046 20 19 20H5Z" stroke="black" stroke-width="1.5" stroke-linecap="round"/>
<path d="M3 16.2032L9.02314 10.5565C9.42501 10.1797 10.0559 10.1989 10.4341 10.5994L19.3125 20" stroke="black" stroke-width="1.5" stroke-linecap="round"/>
<path d="M15 15.1254L17.8984 12.7097C18.2957 12.3786 18.8801 12.4051 19.2458 12.7709L21 14.5253" stroke="black" stroke-width="1.5" stroke-linecap="round"/>
<path d="M17 8.625C17 9.45343 16.3284 10.125 15.5 10.125C14.6716 10.125 14 9.45343 14 8.625C14 7.79657 14.6716 7.125 15.5 7.125C16.3284 7.125 17 7.79657 17 8.625Z" stroke="black" stroke-width="1.5" stroke-linecap="round"/>
</svg>
