<svg width="24" height="24" viewBox="0 0 24 24" fill="none" xmlns="http://www.w3.org/2000/svg">
<path d="M16 12.5006C16 11.9483 16.4477 11.5006 17 11.5006H19C20.1046 11.5006 21 12.3961 21 13.5006V17.5006C21 18.6052 20.1046 19.5006 19 19.5006H17C16.4477 19.5006 16 19.0529 16 18.5006V12.5006Z" stroke="black" stroke-width="1.5" stroke-linecap="round"/>
<path d="M8 12.5006C8 11.9483 7.55228 11.5006 7 11.5006H5C3.89543 11.5006 3 12.3961 3 13.5006V17.5006C3 18.6052 3.89543 19.5006 5 19.5006H7C7.55228 19.5006 8 19.0529 8 18.5006V12.5006Z" stroke="black" stroke-width="1.5" stroke-linecap="round"/>
<path d="M17.9736 11.499V10.473C17.9736 7.17389 15.2991 4.4994 12 4.4994C8.70085 4.4994 6.02637 7.17389 6.02637 10.473V11.499" stroke="black" stroke-width="1.5" stroke-linecap="round"/>
</svg>
