<svg width="24" height="24" viewBox="0 0 24 24" fill="none" xmlns="http://www.w3.org/2000/svg">
<path d="M3.75 10.2113C3.75 9.82555 3.92809 9.46142 4.23257 9.2246L11.2326 3.78015C11.684 3.42908 12.316 3.42908 12.7674 3.78016L19.7674 9.2246C20.0719 9.46142 20.25 9.82555 20.25 10.2113V19.2331C20.25 19.9235 19.6904 20.4831 19 20.4831H14.5C14.3619 20.4831 14.25 20.3712 14.25 20.2331V16.2331C14.25 15.2666 13.4665 14.4831 12.5 14.4831H11.5C10.5335 14.4831 9.75 15.2666 9.75 16.2331V20.2331C9.75 20.3712 9.63807 20.4831 9.5 20.4831H5C4.30964 20.4831 3.75 19.9235 3.75 19.2331V10.2113Z" stroke="black" stroke-width="1.5"/>
</svg>
