<svg width="24" height="24" viewBox="0 0 24 24" fill="none" xmlns="http://www.w3.org/2000/svg">
<path d="M15 10C15 11.6569 13.6569 13 12 13C10.3431 13 9 11.6569 9 10C9 8.34315 10.3431 7 12 7C13.6569 7 15 8.34315 15 10Z" stroke="black" stroke-width="1.5" stroke-linecap="round"/>
<path d="M12 3C8.13401 3 5 6.2325 5 10.22C5 12.2291 5.79564 14.0466 7.07967 15.3555C7.11476 15.3912 7.1476 15.4292 7.17737 15.4695L11.1982 20.9142C11.5971 21.4545 12.4046 21.4557 12.8052 20.9167L17.001 15.2719C18.2376 13.9697 19 12.1867 19 10.22C19 6.2325 15.866 3 12 3Z" stroke="black" stroke-width="1.5" stroke-linecap="round"/>
</svg>
