<svg width="24" height="24" viewBox="0 0 24 24" fill="none" xmlns="http://www.w3.org/2000/svg">
<path d="M4.49988 11.248C4.49988 10.6958 4.94759 10.248 5.49988 10.248H18.5005C19.0528 10.248 19.5005 10.6958 19.5005 11.248V20.0003C19.5005 20.5526 19.0528 21.0003 18.5005 21.0003H5.49988C4.94759 21.0003 4.49988 20.5526 4.49988 20.0003V11.248Z" stroke="black" stroke-width="1.5" stroke-linecap="round"/>
<path d="M16.4994 10.2481V7.49941C16.4994 5.01425 14.4848 2.99963 11.9997 2.99963C9.5145 2.99963 7.49988 5.01425 7.49988 7.49941V10.2481" stroke="black" stroke-width="1.5" stroke-linecap="round"/>
<path d="M13.4994 14.9241C13.4994 15.7525 12.8278 16.4241 11.9994 16.4241C11.171 16.4241 10.4994 15.7525 10.4994 14.9241C10.4994 14.0956 11.171 13.4241 11.9994 13.4241C12.8278 13.4241 13.4994 14.0956 13.4994 14.9241Z" fill="black"/>
<path d="M12.0433 17.8244V15.7439" stroke="black" stroke-width="1.5" stroke-linecap="round"/>
</svg>
