<svg width="24" height="24" viewBox="0 0 24 24" fill="none" xmlns="http://www.w3.org/2000/svg">
<path d="M19.3418 10.9363H15.4684" stroke="black" stroke-width="1.5" stroke-linecap="round"/>
<path d="M16.401 12.5706L14.8506 10.9363L16.401 9.30208" stroke="black" stroke-width="1.5" stroke-linecap="round" stroke-linejoin="round"/>
<path d="M15.8294 15.3978V17.921C15.8294 18.5837 15.2922 19.121 14.6294 19.121L12.3118 19.121M15.8294 6.47341V3.95164C15.8294 3.28889 15.2922 2.75164 14.6294 2.75164L5.53106 2.75162C4.86831 2.75162 4.33105 3.28887 4.33105 3.95162V6.11205" stroke="black" stroke-width="1.5" stroke-linecap="round"/>
<path d="M5.16965 19.3855L10.9269 21.2001C11.5713 21.4033 12.2275 20.9221 12.2275 20.2464L12.2275 5.97403C12.2275 5.53755 11.9444 5.1515 11.5281 5.02029L5.89112 3.24355C5.11782 2.99981 4.33038 3.57724 4.33038 4.38804L4.33038 18.241C4.33038 18.7648 4.6701 19.2281 5.16965 19.3855Z" stroke="black" stroke-width="1.5" stroke-linecap="round"/>
</svg>
