<svg width="24" height="24" viewBox="0 0 24 24" fill="none" xmlns="http://www.w3.org/2000/svg">
<path d="M14.8504 10.9363L18.7238 10.9363" stroke="black" stroke-width="1.5" stroke-linecap="round"/>
<path d="M17.7911 9.30199L19.3416 10.9362L17.7911 12.5705" stroke="black" stroke-width="1.5" stroke-linecap="round" stroke-linejoin="round"/>
<path d="M15.8293 15.3978V17.921C15.8293 18.5837 15.292 19.121 14.6293 19.121L12.3737 19.121M15.8293 6.47338V3.9516C15.8293 3.28886 15.292 2.75161 14.6293 2.75161L5.53087 2.75159C4.86813 2.75159 4.33087 3.28884 4.33087 3.95159V7.2395" stroke="black" stroke-width="1.5" stroke-linecap="round"/>
<path d="M5.16947 19.3855L10.9267 21.2001C11.5712 21.4032 12.2274 20.922 12.2274 20.2464L12.2274 5.974C12.2274 5.53752 11.9443 5.15147 11.528 5.02026L5.89093 3.24352C5.11764 2.99978 4.3302 3.57721 4.3302 4.38801L4.3302 18.241C4.3302 18.7648 4.66992 19.228 5.16947 19.3855Z" stroke="black" stroke-width="1.5" stroke-linecap="round"/>
</svg>
