<svg width="24" height="24" viewBox="0 0 24 24" fill="none" xmlns="http://www.w3.org/2000/svg">
<path d="M2.74902 4.25043C2.74902 3.422 3.4206 2.75043 4.24902 2.75043H19.749C20.5775 2.75043 21.249 3.422 21.249 4.25043V19.7504C21.249 20.5789 20.5775 21.2504 19.749 21.2504H4.24902C3.4206 21.2504 2.74902 20.5789 2.74902 19.7504V4.25043Z" stroke="black" stroke-width="1.5" stroke-linejoin="round"/>
<path d="M12.7266 17.0004C12.7266 17.4146 12.3908 17.7504 11.9766 17.7504C11.5623 17.7504 11.2266 17.4146 11.2266 17.0004C11.2266 16.5862 11.5623 16.2504 11.9766 16.2504C12.3908 16.2504 12.7266 16.5862 12.7266 17.0004Z" fill="black"/>
<path d="M11.9782 14.4668C11.9782 12.3768 14.839 12.315 14.839 9.86124C14.839 8.28125 13.5582 7.00043 11.9782 7.00043C10.5672 7.00043 9.39474 8.02201 9.16016 9.36591" stroke="black" stroke-width="1.5" stroke-linecap="round"/>
</svg>
