<svg width="24" height="24" viewBox="0 0 24 24" fill="none" xmlns="http://www.w3.org/2000/svg">
<path d="M10.1371 2.75C9.88176 2.75 9.66744 2.9424 9.64 3.19626L9.34141 5.95819C8.89979 6.15279 8.48354 6.39439 8.099 6.67665L5.55642 5.55366C5.32284 5.4505 5.04906 5.5399 4.92139 5.76104L3.05775 8.98896C2.93008 9.21009 2.98954 9.49189 3.19567 9.64259L5.43922 11.2828C5.41377 11.5184 5.40071 11.7577 5.40071 12C5.40071 12.2423 5.41377 12.4816 5.43922 12.7172L3.19567 14.3574C2.98954 14.5081 2.93008 14.7899 3.05775 15.011L4.92139 18.239C5.04906 18.4601 5.32284 18.5495 5.55642 18.4463L8.09899 17.3233C8.48354 17.6056 8.89979 17.8472 9.34141 18.0418L9.64 20.8037C9.66744 21.0576 9.88176 21.25 10.1371 21.25H13.8644C14.1197 21.25 14.334 21.0576 14.3615 20.8037L14.6602 18.041C15.1012 17.8465 15.517 17.6051 15.9011 17.3231L18.4442 18.4463C18.6778 18.5495 18.9516 18.4601 19.0792 18.239L20.9429 15.011C21.0705 14.7899 21.0111 14.5081 20.8049 14.3574L18.5606 12.7166C18.586 12.4812 18.599 12.2421 18.599 12C18.599 11.7579 18.586 11.5188 18.5606 11.2834L20.8049 9.64259C21.0111 9.49189 21.0705 9.21009 20.9429 8.98896L19.0792 5.76104C18.9516 5.5399 18.6778 5.4505 18.4442 5.55366L15.9011 6.6769C15.517 6.39492 15.1012 6.15352 14.6602 5.95901L14.3615 3.19626C14.334 2.9424 14.1197 2.75 13.8644 2.75H10.1371Z" stroke="black" stroke-width="1.5" stroke-linejoin="round"/>
<path d="M14.9995 12C14.9995 13.6569 13.6564 15 11.9995 15C10.3427 15 8.99951 13.6569 8.99951 12C8.99951 10.3431 10.3427 9 11.9995 9C13.6564 9 14.9995 10.3431 14.9995 12Z" stroke="black" stroke-width="1.5"/>
</svg>
