<svg width="24" height="24" viewBox="0 0 24 24" fill="none" xmlns="http://www.w3.org/2000/svg">
<path d="M8.75586 10.641L15.2982 7.38992M15.2982 16.6118L8.75586 13.3608" stroke="black" stroke-width="1.5" stroke-linecap="round" stroke-linejoin="round"/>
<path d="M9.00725 12.0009C9.00725 13.7288 7.60652 15.1295 5.87863 15.1295C4.15073 15.1295 2.75 13.7288 2.75 12.0009C2.75 10.273 4.15073 8.87225 5.87863 8.87225C7.60652 8.87225 9.00725 10.273 9.00725 12.0009Z" stroke="black" stroke-width="1.5"/>
<path d="M21.2504 5.98664C21.2504 7.71412 19.8497 9.11452 18.1218 9.11452C16.3939 9.11452 14.9932 7.71412 14.9932 5.98664C14.9932 4.25916 16.3939 2.85876 18.1218 2.85876C19.8497 2.85876 21.2504 4.25916 21.2504 5.98664Z" stroke="black" stroke-width="1.5"/>
<path d="M21.2504 18.0133C21.2504 19.7407 19.8497 21.1411 18.1218 21.1411C16.3939 21.1411 14.9932 19.7407 14.9932 18.0133C14.9932 16.2858 16.3939 14.8854 18.1218 14.8854C19.8497 14.8854 21.2504 16.2858 21.2504 18.0133Z" stroke="black" stroke-width="1.5"/>
</svg>
