<svg width="24" height="24" viewBox="0 0 24 24" fill="none" xmlns="http://www.w3.org/2000/svg">
<path fill-rule="evenodd" clip-rule="evenodd" d="M12 1.25003L11.8263 1.25001C9.66072 1.24975 8.37613 1.2496 7.29281 1.62849C5.58832 2.22464 4.19375 3.47889 3.42085 5.11085C2.92962 6.14807 2.79405 7.42549 2.5655 9.57896L2.54716 9.75171L2.31075 11.9768L2.30762 12.0062C2.14818 13.5068 2.0243 14.6727 1.99126 15.6135C1.9578 16.5663 2.01388 17.3499 2.24807 18.0749C2.83776 19.9004 4.17638 21.3888 5.92941 22.1681C6.62559 22.4775 7.39885 22.6161 8.34985 22.6835C9.28889 22.75 10.4613 22.75 11.9703 22.75H12H12.0297C13.5387 22.75 14.7111 22.75 15.6502 22.6835C16.6011 22.6161 17.3744 22.4775 18.0706 22.1681C19.8236 21.3888 21.1622 19.9004 21.7519 18.0749C21.9861 17.3499 22.0422 16.5663 22.0087 15.6135C21.9757 14.6727 21.8518 13.5069 21.6924 12.0064L21.6924 12.0062L21.6893 11.9768L21.4528 9.75171L21.4345 9.57895C21.206 7.42549 21.0704 6.14807 20.5792 5.11085C19.8063 3.47889 18.4117 2.22464 16.7072 1.62849C15.6239 1.2496 14.3393 1.24975 12.1737 1.25001L12 1.25003ZM7.78803 3.04439C8.59977 2.76048 9.60755 2.75003 12 2.75003C14.3925 2.75003 15.4002 2.76048 16.212 3.04439C17.5377 3.50806 18.6224 4.48358 19.2235 5.75289C19.5916 6.5301 19.7085 7.53113 19.9612 9.91019L20.1976 12.1352C20.3609 13.6714 20.4787 14.7847 20.5097 15.6662C20.5404 16.5418 20.4818 17.1269 20.3246 17.6138C19.8659 19.0337 18.8248 20.1913 17.4613 20.7974C16.9938 21.0052 16.4181 21.1253 15.5441 21.1872C14.6643 21.2496 13.5448 21.25 12 21.25C10.4552 21.25 9.3357 21.2496 8.45588 21.1872C7.58187 21.1253 7.00624 21.0052 6.53871 20.7974C5.17525 20.1913 4.1341 19.0337 3.67545 17.6138C3.51818 17.1269 3.45958 16.5418 3.49034 15.6662C3.5213 14.7847 3.63914 13.6714 3.80236 12.1352L4.03877 9.91019C4.29154 7.53113 4.40841 6.5301 4.7765 5.75289C5.37765 4.48358 6.46231 3.50806 7.78803 3.04439ZM9.75012 9.00003C9.75012 10.2427 10.7575 11.25 12.0001 11.25C13.2428 11.25 14.2501 10.2427 14.2501 9.00003V7.00003C14.2501 6.58581 14.5859 6.25003 15.0001 6.25003C15.4143 6.25003 15.7501 6.58581 15.7501 7.00003V9.00003C15.7501 11.0711 14.0712 12.75 12.0001 12.75C9.92906 12.75 8.25012 11.0711 8.25012 9.00003V7.00003C8.25012 6.58581 8.58591 6.25003 9.00012 6.25003C9.41434 6.25003 9.75012 6.58581 9.75012 7.00003V9.00003Z" fill="#22272F"/>
</svg>
