<svg width="24" height="24" viewBox="0 0 24 24" fill="none" xmlns="http://www.w3.org/2000/svg">
<path d="M4.73909 9.69588C4.8892 8.72022 5.7287 8 6.71584 8H17.2842C18.2713 8 19.1108 8.72022 19.2609 9.69589L20.6455 18.6959C20.8319 19.9074 19.8945 21 18.6688 21H5.33122C4.10545 21 3.16809 19.9074 3.35448 18.6959L4.73909 9.69588Z" stroke="#151515" stroke-width="1.5"/>
<path d="M8 8V7C8 4.79086 9.79086 3 12 3V3C14.2091 3 16 4.79086 16 7V8" stroke="#151515" stroke-width="1.5" stroke-linecap="round"/>
<path d="M16 11V12C16 14.2091 14.2091 16 12 16V16C9.79086 16 8 14.2091 8 12V11" stroke="#151515" stroke-width="1.5" stroke-linecap="round"/>
</svg>
