<svg width="24" height="24" viewBox="0 0 24 24" fill="none" xmlns="http://www.w3.org/2000/svg">
<path d="M11.5384 4.10999C11.7092 3.69934 12.2909 3.69934 12.4617 4.10999L14.5278 9.07747C14.5998 9.25058 14.7626 9.36887 14.9495 9.38385L20.3123 9.81379C20.7557 9.84933 20.9354 10.4026 20.5977 10.6919L16.5118 14.1919C16.3694 14.3139 16.3072 14.5053 16.3507 14.6877L17.599 19.9209C17.7022 20.3535 17.2316 20.6954 16.852 20.4636L12.2607 17.6592C12.1007 17.5615 11.8994 17.5615 11.7394 17.6592L7.14813 20.4636C6.76858 20.6954 6.29795 20.3535 6.40114 19.9209L7.64945 14.6877C7.69296 14.5053 7.63077 14.3139 7.48838 14.1919L3.40248 10.6919C3.06471 10.4026 3.24447 9.84933 3.6878 9.81379L9.05061 9.38385C9.23751 9.36887 9.40031 9.25058 9.47232 9.07747L11.5384 4.10999Z" stroke="black" stroke-width="1.5" stroke-linecap="round"/>
</svg>
