<svg width="24" height="24" viewBox="0 0 24 24" fill="none" xmlns="http://www.w3.org/2000/svg">
<path d="M4.49976 11.248C4.49976 10.6958 4.94747 10.248 5.49976 10.248H18.5004C19.0527 10.248 19.5004 10.6958 19.5004 11.248V20.0003C19.5004 20.5526 19.0527 21.0003 18.5004 21.0003H5.49976C4.94747 21.0003 4.49976 20.5526 4.49976 20.0003V11.248Z" stroke="black" stroke-width="1.5" stroke-linecap="round"/>
<path d="M16.4993 10.2481V7.49941C16.4993 5.01425 14.4847 2.99963 11.9995 2.99963C9.51438 2.99963 7.49976 5.01425 7.49976 7.49941V7.55703" stroke="black" stroke-width="1.5" stroke-linecap="round"/>
<path d="M13.4993 14.9241C13.4993 15.7525 12.8277 16.4241 11.9993 16.4241C11.1708 16.4241 10.4993 15.7525 10.4993 14.9241C10.4993 14.0956 11.1708 13.4241 11.9993 13.4241C12.8277 13.4241 13.4993 14.0956 13.4993 14.9241Z" fill="black"/>
<path d="M12.0432 17.8244V15.7439" stroke="black" stroke-width="1.5" stroke-linecap="round"/>
</svg>
