<svg width="24" height="24" viewBox="0 0 24 24" fill="none" xmlns="http://www.w3.org/2000/svg">
<path d="M2.75 3.71893L4.2288 4.47167C4.53339 4.62671 4.73769 4.92657 4.77054 5.26676L5.71946 15.0948M5.71946 15.0948H16.4384M5.71946 15.0948C4.71458 15.6332 4.5029 16.9829 5.29473 17.803L5.44242 17.9559C5.61946 18.1393 5.86342 18.2429 6.11831 18.2429H19.7426" stroke="black" stroke-width="1.5" stroke-linecap="round"/>
<path d="M18.7413 19.7453C18.7413 20.5751 18.0686 21.2478 17.2388 21.2478C16.409 21.2478 15.7363 20.5751 15.7363 19.7453C15.7363 18.9155 16.409 18.2429 17.2388 18.2429C18.0686 18.2429 18.7413 18.9155 18.7413 19.7453Z" stroke="black" stroke-width="1.5"/>
<path d="M9.72664 19.7453C9.72664 20.5751 9.05395 21.2478 8.22416 21.2478C7.39436 21.2478 6.72168 20.5751 6.72168 19.7453C6.72168 18.9155 7.39436 18.2429 8.22416 18.2429C9.05395 18.2429 9.72664 18.9155 9.72664 19.7453Z" stroke="black" stroke-width="1.5"/>
<path d="M19.9222 8.00255C20.5868 8.0433 21.0267 8.70998 20.8028 9.33702L19.2202 13.7682C18.9359 14.5642 18.1819 15.0955 17.3367 15.0955H5.72468L5.03516 7.08978L11.6195 7.49349" stroke="black" stroke-width="1.5" stroke-linecap="round"/>
<path fill-rule="evenodd" clip-rule="evenodd" d="M20.1372 3.53487C19.1089 2.50653 17.4416 2.50653 16.4133 3.53487L15.842 4.10613C15.8147 4.13341 15.7705 4.13341 15.7432 4.10613L15.172 3.53487C14.1436 2.50653 12.4764 2.50653 11.448 3.53487C10.4197 4.56321 10.4197 6.23048 11.448 7.25882L15.5456 11.3564C15.682 11.4928 15.9032 11.4928 16.0396 11.3564L20.1372 7.25882C21.1656 6.23048 21.1656 4.56321 20.1372 3.53487Z" stroke="black" stroke-width="1.5" stroke-linecap="round"/>
</svg>
